<svg width="32" height="32" viewBox="0 0 32 32" fill="none" xmlns="http://www.w3.org/2000/svg">
<path d="M31.5184 19.8706C29.3814 28.442 20.7 33.6585 12.1276 31.521C3.55867 29.384 -1.65778 20.7021 0.480202 12.1312C2.61618 3.55876 11.2976 -1.65819 19.8675 0.478793C28.4394 2.61577 33.6554 11.2987 31.5184 19.8706Z" fill="#F7931A"/>
<path d="M23.0552 13.721C23.3737 11.592 21.7527 10.4475 19.5362 9.68402L20.2552 6.80005L18.4997 6.36255L17.7997 9.17053C17.3382 9.05553 16.8642 8.94703 16.3932 8.83953L17.0982 6.01306L15.3438 5.57556L14.6243 8.45853C14.2423 8.37153 13.8673 8.28553 13.5033 8.19504L13.5053 8.18604L11.0843 7.58154L10.6173 9.45652C10.6173 9.45652 11.9198 9.75502 11.8923 9.77352C12.6033 9.95102 12.7318 10.4215 12.7103 10.7945L11.8913 14.08C11.9403 14.0925 12.0038 14.1105 12.0738 14.1385C12.0153 14.124 11.9528 14.108 11.8883 14.0925L10.7403 18.6949C10.6533 18.9109 10.4328 19.2349 9.93581 19.1119C9.95331 19.1374 8.65982 18.7934 8.65982 18.7934L7.78833 20.8029L10.0728 21.3724C10.4978 21.4789 10.9143 21.5904 11.3243 21.6954L10.5978 24.6124L12.3513 25.0499L13.0708 22.1639C13.5498 22.2939 14.0148 22.4139 14.4698 22.5269L13.7528 25.3994L15.5083 25.8369L16.2347 22.9254C19.2282 23.4919 21.4792 23.2634 22.4267 20.5559C23.1902 18.3759 22.3887 17.1184 20.8137 16.2985C21.9607 16.034 22.8247 15.2795 23.0552 13.721ZM19.0442 19.3454C18.5017 21.5254 14.8313 20.3469 13.6413 20.0514L14.6053 16.187C15.7952 16.484 19.6112 17.0719 19.0442 19.3454ZM19.5872 13.6895C19.0922 15.6725 16.0372 14.665 15.0463 14.418L15.9202 10.913C16.9112 11.16 20.1027 11.621 19.5872 13.6895Z" fill="white"/>
</svg>
