<svg width="16" height="17" viewBox="0 0 16 17" fill="none" xmlns="http://www.w3.org/2000/svg">
<path d="M14.2706 4.5573L8.27059 1.89063C8.18527 1.85272 8.09295 1.83313 7.99959 1.83313C7.90622 1.83313 7.8139 1.85272 7.72859 1.89063L1.72859 4.5573C1.71525 4.5633 1.70592 4.5733 1.69259 4.58063C1.67392 4.58997 1.65392 4.59597 1.63659 4.6073C1.62192 4.6173 1.61059 4.62997 1.59659 4.64063C1.54785 4.67685 1.50511 4.72049 1.46992 4.76997C1.45659 4.78863 1.44259 4.8053 1.43059 4.82397C1.41074 4.8592 1.3938 4.89599 1.37992 4.93397C1.37392 4.95197 1.36459 4.96863 1.35925 4.98663C1.34251 5.04519 1.33376 5.10574 1.33325 5.16663V11.8333C1.33325 12.0973 1.48792 12.3353 1.72925 12.4426L7.72925 15.1093C7.81592 15.148 7.90792 15.1666 7.99992 15.1666C8.09274 15.1643 8.18404 15.1425 8.26792 15.1026L8.27059 15.1093L14.2706 12.4426C14.3885 12.3903 14.4887 12.3049 14.559 12.1967C14.6293 12.0886 14.6667 11.9623 14.6666 11.8333V5.16663C14.6667 5.03763 14.6293 4.91137 14.559 4.8032C14.4887 4.69503 14.3885 4.6096 14.2706 4.5573ZM7.99992 3.22997L12.3586 5.16663L7.99992 7.1033L7.12792 6.71597L3.64192 5.16663L7.99992 3.22997ZM2.66659 11.4006V6.19263L7.33325 8.26663V13.474L2.66659 11.4006ZM8.66659 13.474V8.26663L13.3333 6.19263V11.4006L8.66659 13.474Z" fill="#FAA997"/>
</svg>
