<svg width="12" height="13" viewBox="0 0 12 13" fill="none" xmlns="http://www.w3.org/2000/svg">
<path d="M10.703 3.54301L6.203 1.54301C6.13901 1.51457 6.06977 1.49988 5.99975 1.49988C5.92973 1.49988 5.86049 1.51457 5.7965 1.54301L1.2965 3.54301C1.2865 3.54751 1.2795 3.55501 1.2695 3.56051C1.2555 3.56751 1.2405 3.57201 1.2275 3.58051C1.2165 3.58801 1.208 3.59751 1.1975 3.60551C1.16095 3.63267 1.12889 3.6654 1.1025 3.70251C1.0925 3.71651 1.082 3.72901 1.073 3.74301C1.05812 3.76943 1.04541 3.79702 1.035 3.82551C1.0305 3.83901 1.0235 3.85151 1.0195 3.86501C1.00694 3.90892 1.00038 3.95433 1 4.00001V9.00001C1 9.19801 1.116 9.3765 1.297 9.45701L5.797 11.457C5.862 11.486 5.931 11.5 6 11.5C6.06962 11.4982 6.13809 11.4819 6.201 11.452L6.203 11.457L10.703 9.45701C10.7914 9.41778 10.8666 9.35371 10.9193 9.27258C10.972 9.19146 11.0001 9.09676 11 9.00001V4.00001C11.0001 3.90325 10.972 3.80856 10.9193 3.72743C10.8666 3.6463 10.7914 3.58223 10.703 3.54301ZM6 2.54751L9.269 4.00001L6 5.45251L5.346 5.16201L2.7315 4.00001L6 2.54751ZM2 8.67551V4.76951L5.5 6.32501V10.2305L2 8.67551ZM6.5 10.2305V6.32501L10 4.76951V8.67551L6.5 10.2305Z" fill="#FAA997"/>
</svg>
