<svg width="16" height="16" viewBox="0 0 16 16" fill="none" xmlns="http://www.w3.org/2000/svg">
<path d="M2.00008 0.666626C1.26008 0.666626 0.666748 1.25996 0.666748 1.99996V9.33329C0.666748 10.0733 1.26008 10.6666 2.00008 10.6666H9.33342C10.0734 10.6666 10.6667 10.0733 10.6667 9.33329V7.33329H9.33342V9.33329H2.00008V1.99996H9.33342V3.33329H10.6667V1.99996C10.6667 1.25996 10.0734 0.666626 9.33342 0.666626M6.00008 4.66663C5.26008 4.66663 4.66675 5.25996 4.66675 5.99996V7.99996H6.00008V5.99996H13.3334V13.3333H6.00008V12H4.66675V13.3333C4.66675 14.0733 5.26008 14.6666 6.00008 14.6666H13.3334C14.0734 14.6666 14.6667 14.0733 14.6667 13.3333V5.99996C14.6667 5.25996 14.0734 4.66663 13.3334 4.66663H6.00008Z" fill="#6F7B8B"/>
</svg>
