<svg width="16" height="17" viewBox="0 0 16 17" fill="none" xmlns="http://www.w3.org/2000/svg">
<path d="M12.6663 14.5H5.33301V5.16663H12.6663M12.6663 3.83329H5.33301C4.97939 3.83329 4.64025 3.97377 4.3902 4.22382C4.14015 4.47387 3.99967 4.813 3.99967 5.16663V14.5C3.99967 14.8536 4.14015 15.1927 4.3902 15.4428C4.64025 15.6928 4.97939 15.8333 5.33301 15.8333H12.6663C13.02 15.8333 13.3591 15.6928 13.6091 15.4428C13.8592 15.1927 13.9997 14.8536 13.9997 14.5V5.16663C13.9997 4.813 13.8592 4.47387 13.6091 4.22382C13.3591 3.97377 13.02 3.83329 12.6663 3.83329ZM10.6663 1.16663H2.66634C2.31272 1.16663 1.97358 1.3071 1.72353 1.55715C1.47348 1.8072 1.33301 2.14634 1.33301 2.49996V11.8333H2.66634V2.49996H10.6663V1.16663Z" fill="#F4431C"/>
</svg>
