<svg width="133" height="48" viewBox="0 0 133 48" fill="none" xmlns="http://www.w3.org/2000/svg">
<path d="M28.3015 7.76502L40.3064 24.5322L11.4576 19.7153L28.3015 7.76502Z" fill="white"/>
<path fill-rule="evenodd" clip-rule="evenodd" d="M37.9391 38.5639L25.9342 21.7967L9.0903 33.747L18.348 35.2928L22.6178 41.4657L28.6773 37.0175L37.9391 38.5639Z" fill="white"/>
<path fill-rule="evenodd" clip-rule="evenodd" d="M27.2794 13.826L39.2137 31.0124L29.4074 29.375L27.9397 34.1911L25.0925 33.7157L24.8202 28.6091L24.754 28.5981L22.8165 33.3353L19.976 32.861L20.1687 27.8325L10.3649 26.1955L27.2794 13.826Z" fill="#F4431C"/>
<path d="M62.931 20.0306C62.9831 19.2974 62.7876 18.7297 62.3444 18.3275C61.9077 17.9252 61.2168 17.7241 60.2717 17.7241C59.646 17.7241 59.1116 17.8052 58.6684 17.9674C58.2252 18.1231 57.8765 18.3437 57.6223 18.6292C57.3681 18.9082 57.2084 19.2326 57.1432 19.6024C57.0845 19.8943 57.1008 20.1539 57.1921 20.381C57.2833 20.608 57.443 20.8092 57.6711 20.9843C57.9058 21.1595 58.1958 21.312 58.5413 21.4418C58.8932 21.5715 59.2876 21.6851 59.7242 21.7824L61.3667 22.1717C62.3183 22.3858 63.1428 22.6713 63.8402 23.0281C64.5441 23.3785 65.1144 23.8034 65.5511 24.303C65.9878 24.7961 66.2876 25.3638 66.4506 26.0061C66.6135 26.6485 66.6266 27.3686 66.4897 28.1667C66.2811 29.4254 65.7825 30.5056 64.9939 31.4075C64.2117 32.3093 63.1884 33.0003 61.924 33.4804C60.6661 33.9606 59.2028 34.2006 57.5343 34.2006C55.8657 34.2006 54.4481 33.9508 53.2814 33.4512C52.1213 32.9452 51.2805 32.1828 50.759 31.1642C50.2376 30.1456 50.0975 28.8609 50.3386 27.3102H54.963C54.8913 27.9526 54.9728 28.4878 55.2074 28.9161C55.4486 29.3443 55.8201 29.6687 56.322 29.8893C56.8238 30.1099 57.43 30.2202 58.1404 30.2202C58.7922 30.2202 59.3625 30.1326 59.8513 29.9574C60.3467 29.7822 60.741 29.5389 61.0343 29.2275C61.3341 28.9161 61.5166 28.5592 61.5818 28.1569C61.647 27.7871 61.5851 27.466 61.3961 27.1935C61.2136 26.921 60.9007 26.6841 60.4575 26.483C60.0208 26.2819 59.4472 26.1002 58.7368 25.938L56.7326 25.4514C55.0771 25.0491 53.8224 24.4068 52.9686 23.5244C52.1213 22.6421 51.8214 21.445 52.0691 19.9333C52.2777 18.694 52.7926 17.6105 53.6138 16.6827C54.4416 15.7549 55.4877 15.0348 56.7521 14.5222C58.0231 14.0031 59.4212 13.7436 60.9463 13.7436C62.4976 13.7436 63.8011 14.0064 64.857 14.5319C65.9194 15.051 66.6852 15.7841 67.1545 16.7314C67.6303 17.6722 67.7672 18.7719 67.5651 20.0306H62.931Z" fill="white"/>
<path d="M80.6267 14.0161H85.4564L83.3153 26.8723C83.0677 28.3581 82.4973 29.6525 81.6044 30.7554C80.718 31.8519 79.5872 32.7019 78.2119 33.3053C76.8367 33.9022 75.305 34.2006 73.6169 34.2006C71.9222 34.2006 70.4916 33.9022 69.3249 33.3053C68.1582 32.7019 67.3142 31.8519 66.7928 30.7554C66.2713 29.6525 66.1312 28.3581 66.3724 26.8723L68.5135 14.0161H73.3529L71.2705 26.4538C71.1597 27.1416 71.2118 27.7547 71.4269 28.2932C71.6485 28.8252 72.007 29.2469 72.5023 29.5584C72.9977 29.8633 73.6038 30.0158 74.3208 30.0158C75.0443 30.0158 75.7058 29.8633 76.3055 29.5584C76.9051 29.2469 77.4004 28.8252 77.7915 28.2932C78.1826 27.7547 78.4335 27.1416 78.5443 26.4538L80.6267 14.0161Z" fill="white"/>
<path d="M82.0405 33.9476L85.3645 14.0161H93.6356C95.1347 14.0161 96.3861 14.2854 97.3898 14.8239C98.3936 15.3559 99.1073 16.1215 99.5309 17.1207C99.9546 18.1134 100.052 19.291 99.8242 20.6535C99.6026 22.0289 99.1073 23.2 98.3382 24.1668C97.5756 25.127 96.5914 25.8602 95.3856 26.3662C94.1863 26.8723 92.8241 27.1253 91.299 27.1253H86.0684L86.7137 23.3298H91.0448C91.7682 23.3298 92.394 23.2357 92.9219 23.0476C93.4498 22.8529 93.8702 22.561 94.1831 22.1717C94.5024 21.7759 94.7143 21.2698 94.8186 20.6535C94.9163 20.0371 94.8707 19.5278 94.6817 19.1255C94.4992 18.7168 94.1766 18.4118 93.7138 18.2107C93.2576 18.0031 92.671 17.8993 91.954 17.8993H89.5685L86.8799 33.9476H82.0405ZM94.8283 24.8383L98.2991 33.9476H93.0197L89.6565 24.8383H94.8283Z" fill="white"/>
<path d="M112.293 20.5269C112.254 20.1182 112.163 19.7581 112.02 19.4467C111.876 19.1287 111.681 18.8595 111.433 18.6389C111.185 18.4183 110.879 18.2529 110.514 18.1426C110.149 18.0258 109.725 17.9674 109.243 17.9674C108.278 17.9674 107.385 18.2009 106.564 18.6681C105.743 19.1352 105.049 19.8165 104.482 20.7118C103.915 21.6007 103.527 22.681 103.318 23.9527C103.11 25.2308 103.103 26.3208 103.299 27.2227C103.501 28.1245 103.905 28.8122 104.511 29.2859C105.117 29.7595 105.919 29.9963 106.916 29.9963C107.809 29.9963 108.598 29.8536 109.282 29.5681C109.967 29.2761 110.521 28.8642 110.944 28.3321C111.374 27.8001 111.645 27.174 111.756 26.4538L112.645 26.5609H107.777L108.363 23.0476H116.986L116.546 25.685C116.253 27.4692 115.621 28.9972 114.65 30.2688C113.685 31.5405 112.479 32.517 111.032 33.1982C109.592 33.8795 108.011 34.2201 106.291 34.2201C104.387 34.2201 102.781 33.8081 101.471 32.9841C100.161 32.1601 99.2285 30.9858 98.6745 29.4611C98.1205 27.9299 98.0162 26.1132 98.3616 24.011C98.6354 22.376 99.1209 20.926 99.8184 19.6608C100.522 18.3891 101.383 17.3121 102.399 16.4297C103.423 15.5473 104.554 14.879 105.792 14.4249C107.03 13.9707 108.318 13.7436 109.654 13.7436C110.807 13.7436 111.857 13.9091 112.802 14.24C113.747 14.5709 114.555 15.038 115.226 15.6414C115.898 16.2448 116.403 16.9617 116.742 17.7922C117.087 18.6227 117.237 19.5343 117.191 20.5269H112.293Z" fill="white"/>
<path d="M114.837 33.9476L118.161 14.0161H132.122L131.458 17.9284H122.336L121.671 22.016H130.079L129.414 25.938H121.006L120.342 30.0353H129.463L128.798 33.9476H114.837Z" fill="white"/>
</svg>
